<svg width="86" height="10" viewBox="0 0 86 10" fill="none" xmlns="http://www.w3.org/2000/svg">
<path d="M0.953488 3.92214V9H0.0980788V1.01618H1.49343L4.02326 7.60465H4.06572L6.61375 1.01618H8.00303V9H7.07482V3.85541C7.07482 3.24065 7.10111 2.5996 7.15369 1.93225H7.10516L4.37513 9H3.62892L0.923155 1.92619H0.880688C0.929221 2.48433 0.953488 3.14965 0.953488 3.92214ZM11.3406 5.6269H13.919L12.9908 3.15167C12.8654 2.81193 12.742 2.4277 12.6207 1.99899C12.5479 2.33064 12.4346 2.71486 12.2809 3.15167L11.3406 5.6269ZM16.1637 9H15.2051L14.2102 6.46411H11.013L10.0302 9H9.08984L12.2445 0.985844H13.0272L16.1637 9ZM22.3621 1.01618H23.2903V6.18504C23.2903 7.09505 23.0153 7.81092 22.4652 8.33266C21.9152 8.85035 21.1609 9.1092 20.2023 9.1092C19.2438 9.1092 18.4996 8.84833 17.9698 8.32659C17.444 7.80081 17.1811 7.07887 17.1811 6.16077V1.01618H18.1093V6.2275C18.1093 6.89889 18.2913 7.41254 18.6553 7.76845C19.0234 8.12032 19.5512 8.29626 20.2387 8.29626C20.9263 8.29626 21.4521 8.11628 21.8161 7.75632C22.1801 7.39636 22.3621 6.88271 22.3621 6.21537V1.01618ZM26.3388 1.82912V4.88069H27.6128C28.264 4.88069 28.7432 4.75329 29.0506 4.49848C29.358 4.23964 29.5117 3.84732 29.5117 3.32154C29.5117 2.79575 29.356 2.41557 29.0446 2.18099C28.7331 1.94641 28.2336 1.82912 27.5461 1.82912H26.3388ZM26.3388 5.6815V9H25.4106V1.01618H27.6007C28.5754 1.01618 29.2973 1.20425 29.7665 1.58038C30.2357 1.95248 30.4702 2.51668 30.4702 3.273C30.4702 4.33266 29.9364 5.04651 28.8686 5.41456L31.0344 9H29.9364L28.0011 5.6815H26.3388ZM33.2529 9H32.3246V1.01618H33.2529V9ZM38.8574 1.73205C37.9797 1.73205 37.2861 2.02528 36.7765 2.61173C36.2709 3.19818 36.0182 4.00708 36.0182 5.03842C36.0182 6.06572 36.2629 6.86451 36.7522 7.43478C37.2416 8.00101 37.9393 8.28413 38.8453 8.28413C39.4115 8.28413 40.0485 8.18504 40.7563 7.98686V8.7998C40.2022 9.00607 39.5187 9.1092 38.7057 9.1092C37.5288 9.1092 36.6208 8.75329 35.9818 8.04146C35.3427 7.32154 35.0232 6.30637 35.0232 4.99596C35.0192 4.38928 35.1061 3.83114 35.2841 3.32154C35.4661 2.80789 35.7229 2.3731 36.0546 2.01719C36.3862 1.66127 36.7927 1.38625 37.274 1.19211C37.7553 0.993933 38.2871 0.896865 38.8695 0.90091C39.7148 0.90091 40.4469 1.0546 41.0657 1.36198L40.6714 2.15672C40.0768 1.87361 39.4722 1.73205 38.8574 1.73205ZM43.4247 9H42.4965V1.01618H43.4247V9ZM46.1536 8.03539C45.5146 7.31143 45.1951 6.29828 45.1951 4.99596C45.1951 3.68959 45.5146 2.68049 46.1536 1.96865C46.7967 1.25278 47.6986 0.894843 48.8594 0.894843C50.0242 0.894843 50.9282 1.25885 51.5712 1.98686C52.2184 2.71082 52.5419 3.71385 52.5419 4.99596C52.5419 6.27401 52.2184 7.27907 51.5712 8.01112C50.9241 8.74317 50.0182 9.1092 48.8533 9.1092C47.6926 9.1092 46.7927 8.75126 46.1536 8.03539ZM50.8857 2.55106C50.4368 1.99697 49.7694 1.71992 48.8837 1.71992C48.002 1.71992 47.3306 1.99899 46.8695 2.55713C46.4084 3.11527 46.1779 3.93225 46.1779 5.00809C46.1779 6.07988 46.4084 6.89687 46.8695 7.45905C47.3306 8.01719 48.002 8.29626 48.8837 8.29626C49.7654 8.29626 50.4307 8.01921 50.8796 7.46512C51.3326 6.90698 51.5591 6.08797 51.5591 5.00809C51.5591 3.92417 51.3346 3.10516 50.8857 2.55106Z" fill="white"/>
<path d="M58.6961 5.6269H61.2744L60.3462 3.15167C60.2208 2.81193 60.0975 2.4277 59.9762 1.99899C59.9034 2.33064 59.7901 2.71486 59.6364 3.15167L58.6961 5.6269ZM63.5191 9H62.5606L61.5656 6.46411H58.3685L57.3857 9H56.4453L59.6 0.985844H60.3826L63.5191 9ZM65.5497 9H64.6215V1.01618H65.5497V9ZM68.6669 1.82912V4.88069H69.9409C70.5921 4.88069 71.0714 4.75329 71.3787 4.49848C71.6861 4.23964 71.8398 3.84732 71.8398 3.32154C71.8398 2.79575 71.6841 2.41557 71.3727 2.18099C71.0613 1.94641 70.5618 1.82912 69.8742 1.82912H68.6669ZM68.6669 5.6815V9H67.7387V1.01618H69.9288C70.9035 1.01618 71.6255 1.20425 72.0946 1.58038C72.5638 1.95248 72.7984 2.51668 72.7984 3.273C72.7984 4.33266 72.2645 5.04651 71.1967 5.41456L73.3626 9H72.2645L70.3292 5.6815H68.6669ZM79.0997 8.16886V9H74.6528V1.01618H79.0997V1.84125H75.581V4.41355H78.8873V5.23256H75.581V8.16886H79.0997ZM85.3769 6.87664C85.3769 7.58038 85.1221 8.12841 84.6125 8.52073C84.107 8.91304 83.3972 9.1092 82.4831 9.1092C81.5731 9.1092 80.8633 8.98787 80.3537 8.7452V7.84732C81.0736 8.14661 81.8137 8.29626 82.5741 8.29626C83.1848 8.29626 83.6479 8.18099 83.9634 7.95046C84.2829 7.71992 84.4427 7.39029 84.4427 6.96158C84.4427 6.68655 84.386 6.46208 84.2728 6.28817C84.1636 6.11426 83.9775 5.95045 83.7147 5.79676C83.4518 5.64307 83.0574 5.47321 82.5316 5.28716C81.7915 5.02427 81.2596 4.71082 80.9361 4.34681C80.6166 3.98281 80.4568 3.49949 80.4568 2.89687C80.4568 2.29424 80.6874 1.81092 81.1484 1.44692C81.6176 1.08291 82.2384 0.90091 83.0109 0.90091C83.7875 0.90091 84.5094 1.04651 85.1767 1.33771L84.8855 2.15066C84.2263 1.87159 83.5873 1.73205 82.9684 1.73205C82.475 1.73205 82.0888 1.83923 81.8097 2.05359C81.5347 2.2639 81.3972 2.55511 81.3972 2.9272C81.3972 3.21031 81.4457 3.4368 81.5428 3.60667C81.6439 3.77654 81.8178 3.94034 82.0645 4.09808C82.3193 4.25177 82.6914 4.41355 83.1808 4.58342C84.022 4.88271 84.5964 5.20425 84.9037 5.54803C85.2192 5.88777 85.3769 6.33064 85.3769 6.87664Z" fill="#986DFF"/>
<path d="M0.953488 9V9.5H1.45349V9H0.953488ZM0.0980788 9H-0.401921V9.5H0.0980788V9ZM0.0980788 1.01618V0.516178H-0.401921V1.01618H0.0980788ZM1.49343 1.01618L1.9602 0.836948L1.83703 0.516178H1.49343V1.01618ZM4.02326 7.60465L3.55648 7.78388L3.67965 8.10465H4.02326V7.60465ZM4.06572 7.60465V8.10465H4.40844L4.53206 7.785L4.06572 7.60465ZM6.61375 1.01618V0.516178H6.27103L6.14741 0.835826L6.61375 1.01618ZM8.00303 1.01618H8.50303V0.516178H8.00303V1.01618ZM8.00303 9V9.5H8.50303V9H8.00303ZM7.07482 9H6.57482V9.5H7.07482V9ZM7.15369 1.93225L7.65215 1.97153L7.69463 1.43225H7.15369V1.93225ZM7.10516 1.93225V1.43225H6.76229L6.63874 1.75209L7.10516 1.93225ZM4.37513 9V9.5H4.718L4.84154 9.18016L4.37513 9ZM3.62892 9L3.16192 9.17863L3.28484 9.5H3.62892V9ZM0.923155 1.92619L1.39016 1.74756L1.26723 1.42619H0.923155V1.92619ZM0.880688 1.92619V1.42619H0.335322L0.382567 1.9695L0.880688 1.92619ZM0.453488 3.92214V9H1.45349V3.92214H0.453488ZM0.953488 8.5H0.0980788V9.5H0.953488V8.5ZM0.598079 9V1.01618H-0.401921V9H0.598079ZM0.0980788 1.51618H1.49343V0.516178H0.0980788V1.51618ZM1.02666 1.19541L3.55648 7.78388L4.49003 7.42542L1.9602 0.836948L1.02666 1.19541ZM4.02326 8.10465H4.06572V7.10465H4.02326V8.10465ZM4.53206 7.785L7.08009 1.19653L6.14741 0.835826L3.59938 7.4243L4.53206 7.785ZM6.61375 1.51618H8.00303V0.516178H6.61375V1.51618ZM7.50303 1.01618V9H8.50303V1.01618H7.50303ZM8.00303 8.5H7.07482V9.5H8.00303V8.5ZM7.57482 9V3.85541H6.57482V9H7.57482ZM7.57482 3.85541C7.57482 3.25485 7.60051 2.62694 7.65215 1.97153L6.65524 1.89298C6.60172 2.57225 6.57482 3.22645 6.57482 3.85541H7.57482ZM7.15369 1.43225H7.10516V2.43225H7.15369V1.43225ZM6.63874 1.75209L3.90871 8.81984L4.84154 9.18016L7.57157 2.11241L6.63874 1.75209ZM4.37513 8.5H3.62892V9.5H4.37513V8.5ZM4.09592 8.82137L1.39016 1.74756L0.456152 2.10482L3.16192 9.17863L4.09592 8.82137ZM0.923155 1.42619H0.880688V2.42619H0.923155V1.42619ZM0.382567 1.9695C0.429481 2.50901 0.453488 3.15913 0.453488 3.92214H1.45349C1.45349 3.14017 1.42896 2.45965 1.37881 1.88287L0.382567 1.9695ZM11.3406 5.6269L10.8732 5.44933L10.6158 6.1269H11.3406V5.6269ZM13.919 5.6269V6.1269H14.6405L14.3871 5.45133L13.919 5.6269ZM12.9908 3.15167L12.5217 3.32478L12.5226 3.32723L12.9908 3.15167ZM12.6207 1.99899L13.1018 1.86283L12.1323 1.89179L12.6207 1.99899ZM12.2809 3.15167L12.7485 3.32929L12.7526 3.31762L12.2809 3.15167ZM16.1637 9V9.5H16.8963L16.6293 8.81777L16.1637 9ZM15.2051 9L14.7397 9.18262L14.8642 9.5H15.2051V9ZM14.2102 6.46411L14.6756 6.28149L14.5511 5.96411H14.2102V6.46411ZM11.013 6.46411V5.96411H10.6705L10.5468 6.28342L11.013 6.46411ZM10.0302 9V9.5H10.3726L10.4964 9.18068L10.0302 9ZM9.08984 9L8.62459 8.81686L8.35568 9.5H9.08984V9ZM12.2445 0.985844V0.485844H11.904L11.7793 0.802702L12.2445 0.985844ZM13.0272 0.985844L13.4928 0.803618L13.3684 0.485844H13.0272V0.985844ZM11.3406 6.1269H13.919V5.1269H11.3406V6.1269ZM14.3871 5.45133L13.4589 2.97611L12.5226 3.32723L13.4508 5.80246L14.3871 5.45133ZM13.4598 2.97856C13.3398 2.65336 13.2204 2.28179 13.1018 1.86283L12.1396 2.13515C12.2637 2.57362 12.3909 2.9705 12.5217 3.32478L13.4598 2.97856ZM12.1323 1.89179C12.0651 2.19786 11.9585 2.56174 11.8093 2.98571L12.7526 3.31762C12.9108 2.86798 13.0306 2.46342 13.1091 2.10619L12.1323 1.89179ZM11.8135 2.9741L10.8732 5.44933L11.808 5.80446L12.7484 3.32924L11.8135 2.9741ZM16.1637 8.5H15.2051V9.5H16.1637V8.5ZM15.6706 8.81738L14.6756 6.28149L13.7447 6.64672L14.7397 9.18262L15.6706 8.81738ZM14.2102 5.96411H11.013V6.96411H14.2102V5.96411ZM10.5468 6.28342L9.56398 8.81932L10.4964 9.18068L11.4792 6.64479L10.5468 6.28342ZM10.0302 8.5H9.08984V9.5H10.0302V8.5ZM9.5551 9.18314L12.7098 1.16899L11.7793 0.802702L8.62459 8.81686L9.5551 9.18314ZM12.2445 1.48584H13.0272V0.485844H12.2445V1.48584ZM12.5615 1.16807L15.698 9.18223L16.6293 8.81777L13.4928 0.803618L12.5615 1.16807ZM22.3621 1.01618V0.516178H21.8621V1.01618H22.3621ZM23.2903 1.01618H23.7903V0.516178H23.2903V1.01618ZM22.4652 8.33266L22.8079 8.69676L22.8093 8.69543L22.4652 8.33266ZM17.9698 8.32659L17.6162 8.68016L17.619 8.68286L17.9698 8.32659ZM17.1811 1.01618V0.516178H16.6811V1.01618H17.1811ZM18.1093 1.01618H18.6093V0.516178H18.1093V1.01618ZM18.6553 7.76845L18.3057 8.12598L18.3098 8.12986L18.6553 7.76845ZM21.8161 7.75632L22.1677 8.11184L22.1677 8.11184L21.8161 7.75632ZM22.3621 1.51618H23.2903V0.516178H22.3621V1.51618ZM22.7903 1.01618V6.18504H23.7903V1.01618H22.7903ZM22.7903 6.18504C22.7903 6.98752 22.552 7.5612 22.1211 7.96989L22.8093 8.69543C23.4786 8.06064 23.7903 7.20257 23.7903 6.18504H22.7903ZM22.1226 7.96856C21.6883 8.37724 21.0692 8.6092 20.2023 8.6092V9.6092C21.2526 9.6092 22.142 9.32346 22.8079 8.69676L22.1226 7.96856ZM20.2023 8.6092C19.3355 8.6092 18.7321 8.37549 18.3206 7.97033L17.619 8.68286C18.2672 9.32118 19.1521 9.6092 20.2023 9.6092V8.6092ZM18.3233 7.97304C17.9123 7.56204 17.6811 6.97927 17.6811 6.16077H16.6811C16.6811 7.17847 16.9757 8.03958 17.6162 8.68015L18.3233 7.97304ZM17.6811 6.16077V1.01618H16.6811V6.16077H17.6811ZM17.1811 1.51618H18.1093V0.516178H17.1811V1.51618ZM17.6093 1.01618V6.2275H18.6093V1.01618H17.6093ZM17.6093 6.2275C17.6093 6.9888 17.8177 7.64877 18.3058 8.12596L19.0049 7.41095C18.7649 7.1763 18.6093 6.80898 18.6093 6.2275H17.6093ZM18.3098 8.12986C18.7996 8.5981 19.4685 8.79626 20.2387 8.79626V7.79626C19.6338 7.79626 19.2472 7.64255 19.0009 7.40705L18.3098 8.12986ZM20.2387 8.79626C21.0115 8.79626 21.6815 8.59258 22.1677 8.11184L21.4645 7.4008C21.2227 7.63998 20.8411 7.79626 20.2387 7.79626V8.79626ZM22.1677 8.11184C22.653 7.63189 22.8621 6.97398 22.8621 6.21537H21.8621C21.8621 6.79143 21.7072 7.16083 21.4645 7.4008L22.1677 8.11184ZM22.8621 6.21537V1.01618H21.8621V6.21537H22.8621ZM26.3388 1.82912V1.32912H25.8388V1.82912H26.3388ZM26.3388 4.88069H25.8388V5.38069H26.3388V4.88069ZM29.0506 4.49848L29.3697 4.88343L29.3727 4.88094L29.0506 4.49848ZM26.3388 5.6815V5.1815H25.8388V5.6815H26.3388ZM26.3388 9V9.5H26.8388V9H26.3388ZM25.4106 9H24.9106V9.5H25.4106V9ZM25.4106 1.01618V0.516178H24.9106V1.01618H25.4106ZM29.7665 1.58038L29.4537 1.9705L29.4558 1.97213L29.7665 1.58038ZM28.8686 5.41456L28.7057 4.94185L28.1207 5.14348L28.4406 5.67308L28.8686 5.41456ZM31.0344 9V9.5H31.9206L31.4624 8.74148L31.0344 9ZM29.9364 9L29.5044 9.25189L29.6491 9.5H29.9364V9ZM28.0011 5.6815L28.433 5.42961L28.2883 5.1815H28.0011V5.6815ZM25.8388 1.82912V4.88069H26.8388V1.82912H25.8388ZM26.3388 5.38069H27.6128V4.38069H26.3388V5.38069ZM27.6128 5.38069C28.3121 5.38069 28.9312 5.24689 29.3697 4.88342L28.7315 4.11354C28.5552 4.25968 28.2158 4.38069 27.6128 4.38069V5.38069ZM29.3727 4.88094C29.8254 4.49967 30.0117 3.94615 30.0117 3.32154H29.0117C29.0117 3.74849 28.8906 3.9796 28.7286 4.11603L29.3727 4.88094ZM30.0117 3.32154C30.0117 2.6978 29.8229 2.14129 29.3454 1.78161L28.7437 2.58037C28.8891 2.68985 29.0117 2.89371 29.0117 3.32154H30.0117ZM29.3454 1.78161C28.9027 1.44818 28.2686 1.32912 27.5461 1.32912V2.32912C28.1987 2.32912 28.5635 2.44465 28.7437 2.58037L29.3454 1.78161ZM27.5461 1.32912H26.3388V2.32912H27.5461V1.32912ZM25.8388 5.6815V9H26.8388V5.6815H25.8388ZM26.3388 8.5H25.4106V9.5H26.3388V8.5ZM25.9106 9V1.01618H24.9106V9H25.9106ZM25.4106 1.51618H27.6007V0.516178H25.4106V1.51618ZM27.6007 1.51618C28.5272 1.51618 29.1136 1.69782 29.4537 1.97049L30.0793 1.19028C29.481 0.710677 28.6236 0.516178 27.6007 0.516178V1.51618ZM29.4558 1.97213C29.7747 2.22508 29.9702 2.62538 29.9702 3.273H30.9702C30.9702 2.40799 30.6966 1.67988 30.0772 1.18864L29.4558 1.97213ZM29.9702 3.273C29.9702 3.71589 29.8602 4.04864 29.6694 4.30368C29.4767 4.56134 29.1701 4.78177 28.7057 4.94185L29.0316 5.88727C29.6349 5.6793 30.1291 5.35878 30.4702 4.90259C30.8134 4.44378 30.9702 3.88977 30.9702 3.273H29.9702ZM28.4406 5.67308L30.6065 9.25852L31.4624 8.74148L29.2966 5.15604L28.4406 5.67308ZM31.0344 8.5H29.9364V9.5H31.0344V8.5ZM30.3683 8.74811L28.433 5.42961L27.5692 5.93338L29.5044 9.25189L30.3683 8.74811ZM28.0011 5.1815H26.3388V6.1815H28.0011V5.1815ZM33.2529 9V9.5H33.7529V9H33.2529ZM32.3246 9H31.8246V9.5H32.3246V9ZM32.3246 1.01618V0.516178H31.8246V1.01618H32.3246ZM33.2529 1.01618H33.7529V0.516178H33.2529V1.01618ZM33.2529 8.5H32.3246V9.5H33.2529V8.5ZM32.8246 9V1.01618H31.8246V9H32.8246ZM32.3246 1.51618H33.2529V0.516178H32.3246V1.51618ZM32.7529 1.01618V9H33.7529V1.01618H32.7529ZM36.7765 2.61173L36.3991 2.28377L36.3978 2.28526L36.7765 2.61173ZM36.7522 7.43478L36.3728 7.7604L36.374 7.76173L36.7522 7.43478ZM40.7563 7.98686H41.2563V7.32763L40.6215 7.50537L40.7563 7.98686ZM40.7563 8.7998L40.9307 9.26838L41.2563 9.14719V8.7998H40.7563ZM35.9818 8.04146L35.6078 8.37338L35.6097 8.37547L35.9818 8.04146ZM35.0232 4.99596L35.5232 4.99596L35.5232 4.99262L35.0232 4.99596ZM35.2841 3.32154L34.8128 3.15454L34.812 3.1567L35.2841 3.32154ZM36.0546 2.01719L36.4204 2.35805L36.4204 2.35805L36.0546 2.01719ZM37.274 1.19211L37.461 1.65582L37.4644 1.65445L37.274 1.19211ZM38.8695 0.90091L38.8661 1.40091H38.8695V0.90091ZM41.0657 1.36198L41.5136 1.58422L41.7357 1.13652L41.2881 0.914184L41.0657 1.36198ZM40.6714 2.15672L40.4564 2.60815L40.9006 2.81967L41.1192 2.37896L40.6714 2.15672ZM38.8574 1.23205C37.8559 1.23205 37.0166 1.57316 36.3991 2.28377L37.1539 2.93969C37.5556 2.4774 38.1036 2.23205 38.8574 2.23205V1.23205ZM36.3978 2.28526C35.7912 2.98891 35.5182 3.92747 35.5182 5.03842H36.5182C36.5182 4.08668 36.7507 3.40745 37.1552 2.9382L36.3978 2.28526ZM35.5182 5.03842C35.5182 6.14127 35.7811 7.07095 36.3728 7.7604L37.1317 7.10917C36.7446 6.65807 36.5182 5.99017 36.5182 5.03842H35.5182ZM36.374 7.76173C36.9782 8.46084 37.8275 8.78413 38.8453 8.78413V7.78413C38.0511 7.78413 37.5051 7.54118 37.1305 7.10783L36.374 7.76173ZM38.8453 8.78413C39.4683 8.78413 40.1517 8.67536 40.8911 8.46834L40.6215 7.50537C39.9453 7.69471 39.3547 7.78413 38.8453 7.78413V8.78413ZM40.2563 7.98686V8.7998H41.2563V7.98686H40.2563ZM40.5819 8.33121C40.1002 8.51052 39.4799 8.6092 38.7057 8.6092V9.6092C39.5575 9.6092 40.3042 9.50161 40.9307 9.26838L40.5819 8.33121ZM38.7057 8.6092C37.6354 8.6092 36.8767 8.28992 36.3538 7.70744L35.6097 8.37547C36.3649 9.21665 37.4222 9.6092 38.7057 9.6092V8.6092ZM36.3557 7.70953C35.8233 7.10968 35.5232 6.22857 35.5232 4.99596H34.5232C34.5232 6.38417 34.8622 7.53339 35.6078 8.37338L36.3557 7.70953ZM35.5232 4.99262C35.5195 4.43616 35.5992 3.93568 35.7561 3.48638L34.812 3.1567C34.613 3.72661 34.5189 4.3424 34.5232 4.99929L35.5232 4.99262ZM35.7554 3.48853C35.9173 3.03168 36.1407 2.65815 36.4204 2.35805L35.6888 1.67633C35.3051 2.08806 35.0149 2.58409 34.8128 3.15454L35.7554 3.48853ZM36.4204 2.35805C36.6989 2.0592 37.043 1.82444 37.461 1.65581L37.0869 0.728414C36.5424 0.948058 36.0736 1.26335 35.6888 1.67633L36.4204 2.35805ZM37.4644 1.65445C37.8773 1.48443 38.3422 1.39726 38.8661 1.4009L38.873 0.400922C38.232 0.39647 37.6333 0.503437 37.0836 0.729774L37.4644 1.65445ZM38.8695 1.40091C39.6546 1.40091 40.3073 1.54355 40.8433 1.80978L41.2881 0.914184C40.5865 0.565647 39.7751 0.40091 38.8695 0.40091V1.40091ZM40.6178 1.13974L40.2235 1.93449L41.1192 2.37896L41.5136 1.58422L40.6178 1.13974ZM40.8863 1.70529C40.2295 1.39252 39.5518 1.23205 38.8574 1.23205V2.23205C39.3926 2.23205 39.9241 2.3547 40.4564 2.60815L40.8863 1.70529ZM43.4247 9V9.5H43.9247V9H43.4247ZM42.4965 9H41.9965V9.5H42.4965V9ZM42.4965 1.01618V0.516178H41.9965V1.01618H42.4965ZM43.4247 1.01618H43.9247V0.516178H43.4247V1.01618ZM43.4247 8.5H42.4965V9.5H43.4247V8.5ZM42.9965 9V1.01618H41.9965V9H42.9965ZM42.4965 1.51618H43.4247V0.516178H42.4965V1.51618ZM42.9247 1.01618V9H43.9247V1.01618H42.9247ZM46.1536 8.03539L45.7788 8.36627L45.7806 8.36836L46.1536 8.03539ZM46.1536 1.96865L45.7817 1.63452L45.7816 1.63464L46.1536 1.96865ZM51.5712 1.98686L51.1965 2.31788L51.1985 2.32007L51.5712 1.98686ZM51.5712 8.01112L51.1966 7.67997L51.1966 7.67997L51.5712 8.01112ZM50.8857 2.55106L50.4972 2.86582L50.4972 2.86582L50.8857 2.55106ZM46.8695 2.55713L46.484 2.23869L46.484 2.23869L46.8695 2.55713ZM46.8695 7.45905L46.4829 7.77612L46.484 7.77749L46.8695 7.45905ZM50.8796 7.46512L50.4914 7.15003L50.4911 7.15035L50.8796 7.46512ZM46.5285 7.70451C45.9946 7.09964 45.6951 6.21934 45.6951 4.99596H44.6951C44.6951 6.37722 45.0346 7.52321 45.7788 8.36627L46.5285 7.70451ZM45.6951 4.99596C45.6951 3.76744 45.9951 2.89377 46.5257 2.30267L45.7816 1.63464C45.0342 2.4672 44.6951 3.61173 44.6951 4.99596H45.6951ZM46.5256 2.30279C47.0545 1.71404 47.8087 1.39484 48.8594 1.39484V0.394843C47.5886 0.394843 46.539 0.791519 45.7817 1.63452L46.5256 2.30279ZM48.8594 1.39484C49.912 1.39484 50.6672 1.71866 51.1965 2.31787L51.946 1.65584C51.1891 0.799032 50.1364 0.394843 48.8594 0.394843V1.39484ZM51.1985 2.32007C51.7403 2.9263 52.0419 3.79663 52.0419 4.99596H53.0419C53.0419 3.63107 52.6964 2.49533 51.944 1.65364L51.1985 2.32007ZM52.0419 4.99596C52.0419 6.19041 51.7407 7.06447 51.1966 7.67997L51.9459 8.34228C52.696 7.49367 53.0419 6.35762 53.0419 4.99596H52.0419ZM51.1966 7.67997C50.6627 8.28398 49.905 8.6092 48.8533 8.6092V9.6092C50.1313 9.6092 51.1855 9.20237 51.9459 8.34228L51.1966 7.67997ZM48.8533 8.6092C47.8025 8.6092 47.0511 8.28999 46.5266 7.70242L45.7806 8.36836C46.5342 9.21254 47.5826 9.6092 48.8533 9.6092V8.6092ZM51.2742 2.2363C50.7077 1.53712 49.8802 1.21992 48.8837 1.21992V2.21992C49.6586 2.21992 50.1658 2.45681 50.4972 2.86582L51.2742 2.2363ZM48.8837 1.21992C47.8886 1.21992 47.0607 1.54059 46.484 2.23869L47.255 2.87557C47.6005 2.45738 48.1154 2.21992 48.8837 2.21992V1.21992ZM46.484 2.23869C45.9204 2.92101 45.6779 3.87057 45.6779 5.00809H46.6779C46.6779 3.99394 46.8965 3.30953 47.255 2.87557L46.484 2.23869ZM45.6779 5.00809C45.6779 6.14246 45.9208 7.09069 46.4829 7.77612L47.2561 7.14198C46.8961 6.70304 46.6779 6.0173 46.6779 5.00809H45.6779ZM46.484 7.77749C47.0607 8.47558 47.8886 8.79626 48.8837 8.79626V7.79626C48.1154 7.79626 47.6005 7.5588 47.255 7.14061L46.484 7.77749ZM48.8837 8.79626C49.877 8.79626 50.7021 8.4785 51.2681 7.77988L50.4911 7.15035C50.1593 7.55992 49.6537 7.79626 48.8837 7.79626V8.79626ZM51.2679 7.7802C51.8216 7.09787 52.0591 6.14743 52.0591 5.00809H51.0591C51.0591 6.0285 50.8436 6.71608 50.4914 7.15003L51.2679 7.7802ZM52.0591 5.00809C52.0591 3.86644 51.8244 2.91537 51.2742 2.2363L50.4972 2.86582C50.8449 3.29494 51.0591 3.98189 51.0591 5.00809H52.0591ZM58.6961 5.6269L58.2287 5.44933L57.9713 6.1269H58.6961V5.6269ZM61.2744 5.6269V6.1269H61.9959L61.7426 5.45133L61.2744 5.6269ZM60.3462 3.15167L59.8771 3.32478L59.8781 3.32723L60.3462 3.15167ZM59.9762 1.99899L60.4573 1.86283L59.4878 1.89179L59.9762 1.99899ZM59.6364 3.15167L60.104 3.32929L60.1081 3.31762L59.6364 3.15167ZM63.5191 9V9.5H64.2517L63.9847 8.81777L63.5191 9ZM62.5606 9L62.0951 9.18262L62.2196 9.5H62.5606V9ZM61.5656 6.46411L62.0311 6.28149L61.9066 5.96411H61.5656V6.46411ZM58.3685 6.46411V5.96411H58.026L57.9023 6.28342L58.3685 6.46411ZM57.3857 9V9.5H57.7281L57.8519 9.18068L57.3857 9ZM56.4453 9L55.9801 8.81686L55.7111 9.5H56.4453V9ZM59.6 0.985844V0.485844H59.2595L59.1348 0.802702L59.6 0.985844ZM60.3826 0.985844L60.8482 0.803618L60.7239 0.485844H60.3826V0.985844ZM58.6961 6.1269H61.2744V5.1269H58.6961V6.1269ZM61.7426 5.45133L60.8144 2.97611L59.8781 3.32723L60.8063 5.80246L61.7426 5.45133ZM60.8153 2.97856C60.6953 2.65336 60.5758 2.28179 60.4573 1.86283L59.495 2.13515C59.6191 2.57362 59.7464 2.9705 59.8771 3.32478L60.8153 2.97856ZM59.4878 1.89179C59.4206 2.19786 59.3139 2.56174 59.1648 2.98571L60.1081 3.31762C60.2663 2.86798 60.3861 2.46342 60.4645 2.10619L59.4878 1.89179ZM59.169 2.9741L58.2287 5.44933L59.1635 5.80446L60.1038 3.32924L59.169 2.9741ZM63.5191 8.5H62.5606V9.5H63.5191V8.5ZM63.026 8.81738L62.0311 6.28149L61.1002 6.64672L62.0951 9.18262L63.026 8.81738ZM61.5656 5.96411H58.3685V6.96411H61.5656V5.96411ZM57.9023 6.28342L56.9194 8.81932L57.8519 9.18068L58.8347 6.64479L57.9023 6.28342ZM57.3857 8.5H56.4453V9.5H57.3857V8.5ZM56.9106 9.18314L60.0653 1.16899L59.1348 0.802702L55.9801 8.81686L56.9106 9.18314ZM59.6 1.48584H60.3826V0.485844H59.6V1.48584ZM59.917 1.16807L63.0535 9.18223L63.9847 8.81777L60.8482 0.803618L59.917 1.16807ZM65.5497 9V9.5H66.0497V9H65.5497ZM64.6215 9H64.1215V9.5H64.6215V9ZM64.6215 1.01618V0.516178H64.1215V1.01618H64.6215ZM65.5497 1.01618H66.0497V0.516178H65.5497V1.01618ZM65.5497 8.5H64.6215V9.5H65.5497V8.5ZM65.1215 9V1.01618H64.1215V9H65.1215ZM64.6215 1.51618H65.5497V0.516178H64.6215V1.51618ZM65.0497 1.01618V9H66.0497V1.01618H65.0497ZM68.6669 1.82912V1.32912H68.1669V1.82912H68.6669ZM68.6669 4.88069H68.1669V5.38069H68.6669V4.88069ZM71.3787 4.49848L71.6978 4.88343L71.7008 4.88094L71.3787 4.49848ZM68.6669 5.6815V5.1815H68.1669V5.6815H68.6669ZM68.6669 9V9.5H69.1669V9H68.6669ZM67.7387 9H67.2387V9.5H67.7387V9ZM67.7387 1.01618V0.516178H67.2387V1.01618H67.7387ZM72.0946 1.58038L71.7819 1.9705L71.7839 1.97213L72.0946 1.58038ZM71.1967 5.41456L71.0338 4.94185L70.4489 5.14348L70.7688 5.67308L71.1967 5.41456ZM73.3626 9V9.5H74.2487L73.7905 8.74148L73.3626 9ZM72.2645 9L71.8326 9.25189L71.9773 9.5H72.2645V9ZM70.3292 5.6815L70.7611 5.42961L70.6164 5.1815H70.3292V5.6815ZM68.1669 1.82912V4.88069H69.1669V1.82912H68.1669ZM68.6669 5.38069H69.9409V4.38069H68.6669V5.38069ZM69.9409 5.38069C70.6403 5.38069 71.2594 5.24689 71.6978 4.88342L71.0596 4.11354C70.8834 4.25968 70.5439 4.38069 69.9409 4.38069V5.38069ZM71.7008 4.88094C72.1536 4.49967 72.3398 3.94615 72.3398 3.32154H71.3398C71.3398 3.74849 71.2187 3.9796 71.0567 4.11603L71.7008 4.88094ZM72.3398 3.32154C72.3398 2.6978 72.151 2.14129 71.6735 1.78161L71.0718 2.58037C71.2172 2.68985 71.3398 2.89371 71.3398 3.32154H72.3398ZM71.6735 1.78161C71.2308 1.44818 70.5967 1.32912 69.8742 1.32912V2.32912C70.5268 2.32912 70.8917 2.44465 71.0718 2.58037L71.6735 1.78161ZM69.8742 1.32912H68.6669V2.32912H69.8742V1.32912ZM68.1669 5.6815V9H69.1669V5.6815H68.1669ZM68.6669 8.5H67.7387V9.5H68.6669V8.5ZM68.2387 9V1.01618H67.2387V9H68.2387ZM67.7387 1.51618H69.9288V0.516178H67.7387V1.51618ZM69.9288 1.51618C70.8554 1.51618 71.4418 1.69782 71.7819 1.97049L72.4074 1.19028C71.8092 0.710677 70.9517 0.516178 69.9288 0.516178V1.51618ZM71.7839 1.97213C72.1029 2.22508 72.2984 2.62538 72.2984 3.273H73.2984C73.2984 2.40799 73.0247 1.67988 72.4053 1.18864L71.7839 1.97213ZM72.2984 3.273C72.2984 3.71589 72.1883 4.04864 71.9975 4.30368C71.8049 4.56134 71.4982 4.78177 71.0338 4.94185L71.3597 5.88727C71.963 5.6793 72.4572 5.35878 72.7984 4.90259C73.1415 4.44378 73.2984 3.88977 73.2984 3.273H72.2984ZM70.7688 5.67308L72.9346 9.25852L73.7905 8.74148L71.6247 5.15604L70.7688 5.67308ZM73.3626 8.5H72.2645V9.5H73.3626V8.5ZM72.6964 8.74811L70.7611 5.42961L69.8973 5.93338L71.8326 9.25189L72.6964 8.74811ZM70.3292 5.1815H68.6669V6.1815H70.3292V5.1815ZM79.0997 8.16886H79.5997V7.66886H79.0997V8.16886ZM79.0997 9V9.5H79.5997V9H79.0997ZM74.6528 9H74.1528V9.5H74.6528V9ZM74.6528 1.01618V0.516178H74.1528V1.01618H74.6528ZM79.0997 1.01618H79.5997V0.516178H79.0997V1.01618ZM79.0997 1.84125V2.34125H79.5997V1.84125H79.0997ZM75.581 1.84125V1.34125H75.081V1.84125H75.581ZM75.581 4.41355H75.081V4.91355H75.581V4.41355ZM78.8873 4.41355H79.3873V3.91355H78.8873V4.41355ZM78.8873 5.23256V5.73256H79.3873V5.23256H78.8873ZM75.581 5.23256V4.73256H75.081V5.23256H75.581ZM75.581 8.16886H75.081V8.66886H75.581V8.16886ZM78.5997 8.16886V9H79.5997V8.16886H78.5997ZM79.0997 8.5H74.6528V9.5H79.0997V8.5ZM75.1528 9V1.01618H74.1528V9H75.1528ZM74.6528 1.51618H79.0997V0.516178H74.6528V1.51618ZM78.5997 1.01618V1.84125H79.5997V1.01618H78.5997ZM79.0997 1.34125H75.581V2.34125H79.0997V1.34125ZM75.081 1.84125V4.41355H76.081V1.84125H75.081ZM75.581 4.91355H78.8873V3.91355H75.581V4.91355ZM78.3873 4.41355V5.23256H79.3873V4.41355H78.3873ZM78.8873 4.73256H75.581V5.73256H78.8873V4.73256ZM75.081 5.23256V8.16886H76.081V5.23256H75.081ZM75.581 8.66886H79.0997V7.66886H75.581V8.66886ZM84.6125 8.52073L84.3075 8.12453L84.306 8.12571L84.6125 8.52073ZM80.3537 8.7452H79.8537V9.0609L80.1387 9.19663L80.3537 8.7452ZM80.3537 7.84732L80.5456 7.38563L79.8537 7.09797V7.84732H80.3537ZM83.9634 7.95046L83.6708 7.54497L83.6684 7.54676L83.9634 7.95046ZM84.2728 6.28817L83.8493 6.55409L83.8538 6.56101L84.2728 6.28817ZM82.5316 5.28716L82.3643 5.75832L82.3649 5.75852L82.5316 5.28716ZM80.9361 4.34681L80.5603 4.67666L80.5624 4.679L80.9361 4.34681ZM81.1484 1.44692L80.8419 1.05186L80.8386 1.05447L81.1484 1.44692ZM85.1767 1.33771L85.6474 1.50633L85.8051 1.06636L85.3767 0.879445L85.1767 1.33771ZM84.8855 2.15066L84.6906 2.6111L85.1778 2.81734L85.3562 2.31927L84.8855 2.15066ZM81.8097 2.05359L82.1134 2.45077L82.1143 2.45011L81.8097 2.05359ZM81.5428 3.60667L81.1086 3.85478L81.1131 3.86241L81.5428 3.60667ZM82.0645 4.09808L81.7951 4.51948L81.8063 4.52622L82.0645 4.09808ZM83.1808 4.58342L83.3484 4.11233L83.3447 4.11106L83.1808 4.58342ZM84.9037 5.54803L84.5309 5.88136L84.5373 5.88825L84.9037 5.54803ZM84.8769 6.87664C84.8769 7.44204 84.6814 7.83668 84.3075 8.12453L84.9175 8.91692C85.5628 8.42014 85.8769 7.71873 85.8769 6.87664H84.8769ZM84.306 8.12571C83.9187 8.42622 83.3324 8.6092 82.4831 8.6092V9.6092C83.4619 9.6092 84.2952 9.39987 84.9191 8.91574L84.306 8.12571ZM82.4831 8.6092C81.6071 8.6092 80.9823 8.49074 80.5687 8.29377L80.1387 9.19663C80.7443 9.48499 81.5391 9.6092 82.4831 9.6092V8.6092ZM80.8537 8.7452V7.84732H79.8537V8.7452H80.8537ZM80.1617 8.30901C80.9409 8.63294 81.7462 8.79626 82.5741 8.79626V7.79626C81.8813 7.79626 81.2063 7.66029 80.5456 7.38563L80.1617 8.30901ZM82.5741 8.79626C83.2352 8.79626 83.8212 8.67361 84.2584 8.35415L83.6684 7.54676C83.4746 7.68837 83.1344 7.79626 82.5741 7.79626V8.79626ZM84.2559 8.35593C84.7186 8.02215 84.9427 7.53442 84.9427 6.96158H83.9427C83.9427 7.24616 83.8473 7.41769 83.6708 7.54498L84.2559 8.35593ZM84.9427 6.96158C84.9427 6.62055 84.8725 6.29291 84.6918 6.01533L83.8538 6.56101C83.8995 6.63125 83.9427 6.75256 83.9427 6.96158H84.9427ZM84.6962 6.02229C84.5285 5.75513 84.2685 5.54136 83.967 5.36512L83.4623 6.22841C83.6866 6.35955 83.7987 6.47338 83.8493 6.55405L84.6962 6.02229ZM83.967 5.36512C83.6632 5.1875 83.2338 5.00523 82.6984 4.8158L82.3649 5.75852C82.8811 5.94118 83.2403 6.09865 83.4623 6.22841L83.967 5.36512ZM82.699 4.816C81.9947 4.56583 81.5531 4.28835 81.3098 4.01463L80.5624 4.679C80.9662 5.13328 81.5883 5.4827 82.3643 5.75832L82.699 4.816ZM81.3119 4.01697C81.0906 3.76492 80.9568 3.40887 80.9568 2.89687H79.9568C79.9568 3.59012 80.1425 4.2007 80.5603 4.67666L81.3119 4.01697ZM80.9568 2.89687C80.9568 2.44265 81.1209 2.10572 81.4582 1.83936L80.8386 1.05447C80.2539 1.51612 79.9568 2.14582 79.9568 2.89687H80.9568ZM81.4549 1.84196C81.8131 1.56405 82.3158 1.40091 83.0109 1.40091V0.40091C82.161 0.40091 81.4221 0.601774 80.8419 1.05187L81.4549 1.84196ZM83.0109 1.40091C83.7233 1.40091 84.3766 1.5341 84.9768 1.79598L85.3767 0.879445C84.6422 0.558918 83.8516 0.40091 83.0109 0.40091V1.40091ZM84.706 1.1691L84.4148 1.98204L85.3562 2.31927L85.6474 1.50633L84.706 1.1691ZM85.0804 1.69021C84.3691 1.38909 83.6639 1.23205 82.9684 1.23205V2.23205C83.5106 2.23205 84.0835 2.35408 84.6906 2.6111L85.0804 1.69021ZM82.9684 1.23205C82.4082 1.23205 81.9006 1.35329 81.5051 1.65706L82.1143 2.45011C82.2769 2.32518 82.5418 2.23205 82.9684 2.23205V1.23205ZM81.506 1.65641C81.0969 1.96922 80.8972 2.41284 80.8972 2.9272H81.8972C81.8972 2.69737 81.9724 2.55859 82.1134 2.45077L81.506 1.65641ZM80.8972 2.9272C80.8972 3.26085 80.9533 3.58295 81.1086 3.85474L81.9769 3.3586C81.9381 3.29066 81.8972 3.15978 81.8972 2.9272H80.8972ZM81.1131 3.86241C81.2686 4.12358 81.5119 4.33824 81.7952 4.51934L82.3338 3.67682C82.1237 3.54245 82.0192 3.4295 81.9724 3.35093L81.1131 3.86241ZM81.8063 4.52622C82.1049 4.70636 82.5149 4.88155 83.0168 5.05577L83.3447 4.11106C82.8679 3.94555 82.5337 3.79717 82.3227 3.66993L81.8063 4.52622ZM83.0132 5.05449C83.8365 5.34741 84.3106 5.63485 84.531 5.8813L85.2765 5.21476C84.8821 4.77365 84.2076 4.41801 83.3484 4.11234L83.0132 5.05449ZM84.5373 5.88825C84.752 6.11938 84.8769 6.43297 84.8769 6.87664H85.8769C85.8769 6.22831 85.6865 5.65615 85.2701 5.2078L84.5373 5.88825Z" fill="#986DFF"/>
</svg>
